<svg width="204" height="48" viewBox="0 0 204 48" fill="none" xmlns="http://www.w3.org/2000/svg">
<path d="M18.0417 30.7441H15.2791V36H10.5791V30.7441H0.909668V26.5496L9.88843 11.7253H15.2791V26.9875H18.0417V30.7441ZM10.5791 26.9875V16.4421L4.46411 26.9875H10.5791ZM37.2458 30.7441H34.4832V36H29.7832V30.7441H20.1138V26.5496L29.0925 11.7253H34.4832V26.9875H37.2458V30.7441ZM29.7832 26.9875V16.4421L23.6682 26.9875H29.7832ZM54.3948 28.3352C54.552 29.4695 54.8608 30.3174 55.3213 30.8789C56.1636 31.9009 57.6067 32.4119 59.6506 32.4119C60.8748 32.4119 61.8687 32.2771 62.6323 32.0076C64.0811 31.491 64.8054 30.5308 64.8054 29.127C64.8054 28.3071 64.446 27.6726 63.7273 27.2234C63.0085 26.7854 61.8799 26.3979 60.3413 26.061L57.7134 25.4714C55.1304 24.8875 53.3447 24.2529 52.3564 23.5679C50.6831 22.4224 49.8464 20.6311 49.8464 18.1941C49.8464 15.9705 50.655 14.123 52.2722 12.6519C53.8894 11.1807 56.2646 10.4451 59.3979 10.4451C62.0146 10.4451 64.2439 11.1414 66.0857 12.5339C67.9387 13.9153 68.9102 15.9255 69 18.5647H64.0137C63.9238 17.071 63.2725 16.0098 62.0596 15.3809C61.251 14.9653 60.2458 14.7576 59.0442 14.7576C57.7078 14.7576 56.6409 15.0271 55.8435 15.5662C55.0461 16.1052 54.6475 16.8577 54.6475 17.8235C54.6475 18.7107 55.0405 19.3733 55.8267 19.8113C56.332 20.1033 57.4102 20.4458 59.061 20.8389L63.3398 21.8665C65.2153 22.3157 66.6304 22.9165 67.585 23.6689C69.0674 24.8369 69.8086 26.5271 69.8086 28.7395C69.8086 31.0081 68.9382 32.8948 67.1975 34.3997C65.468 35.8933 63.0198 36.6401 59.8528 36.6401C56.6184 36.6401 54.0747 35.9045 52.2217 34.4333C50.3687 32.9509 49.4421 30.9182 49.4421 28.3352H54.3948ZM71.3752 21.2263V17.8066H73.9358V12.6855H78.6863V17.8066H81.668V21.2263H78.6863V30.9294C78.6863 31.6819 78.7817 32.1536 78.9727 32.3445C79.1636 32.5242 79.7476 32.614 80.7246 32.614C80.8706 32.614 81.0222 32.614 81.1794 32.614C81.3479 32.6028 81.5107 32.5916 81.668 32.5803V36.1685L79.3938 36.2527C77.1252 36.3313 75.5754 35.9382 74.7444 35.0735C74.2053 34.5232 73.9358 33.6753 73.9358 32.5298V21.2263H71.3752ZM94.7234 17.2002C94.8132 17.2002 94.8862 17.2058 94.9424 17.217C95.0098 17.217 95.1501 17.2227 95.3635 17.2339V22.1528C95.0603 22.1191 94.7908 22.0967 94.5549 22.0854C94.3191 22.0742 94.1282 22.0686 93.9822 22.0686C92.0505 22.0686 90.7534 22.6975 90.0908 23.9553C89.7202 24.6628 89.5349 25.7522 89.5349 27.2234V36H84.7002V17.6382H89.2822V20.8389C90.0234 19.6147 90.6692 18.7781 91.2195 18.3289C92.1179 17.5764 93.2859 17.2002 94.7234 17.2002ZM105.437 21.1084C104.325 21.1084 103.461 21.4565 102.843 22.1528C102.237 22.8491 101.855 23.7925 101.698 24.9829H109.16C109.082 23.7139 108.694 22.7537 107.998 22.1023C107.313 21.4397 106.459 21.1084 105.437 21.1084ZM105.437 17.1497C106.965 17.1497 108.34 17.436 109.564 18.0088C110.789 18.5815 111.799 19.4856 112.597 20.7209C113.315 21.8103 113.781 23.0737 113.995 24.5112C114.118 25.3535 114.169 26.5664 114.146 28.1499H101.58C101.647 29.9917 102.225 31.2832 103.315 32.0244C103.977 32.4849 104.775 32.7151 105.707 32.7151C106.695 32.7151 107.498 32.4343 108.116 31.8728C108.453 31.5696 108.75 31.1484 109.009 30.6094H113.911C113.787 31.6987 113.22 32.8049 112.209 33.928C110.637 35.7136 108.436 36.6064 105.606 36.6064C103.27 36.6064 101.209 35.854 99.4233 34.3491C97.6377 32.8442 96.7449 30.396 96.7449 27.0044C96.7449 23.8262 97.5479 21.3892 99.1538 19.6934C100.771 17.9976 102.865 17.1497 105.437 17.1497ZM124.641 21.1084C123.53 21.1084 122.665 21.4565 122.047 22.1528C121.441 22.8491 121.059 23.7925 120.902 24.9829H128.364C128.286 23.7139 127.898 22.7537 127.202 22.1023C126.517 21.4397 125.663 21.1084 124.641 21.1084ZM124.641 17.1497C126.169 17.1497 127.544 17.436 128.769 18.0088C129.993 18.5815 131.003 19.4856 131.801 20.7209C132.52 21.8103 132.986 23.0737 133.199 24.5112C133.323 25.3535 133.373 26.5664 133.351 28.1499H120.784C120.851 29.9917 121.429 31.2832 122.519 32.0244C123.181 32.4849 123.979 32.7151 124.911 32.7151C125.899 32.7151 126.702 32.4343 127.32 31.8728C127.657 31.5696 127.954 31.1484 128.213 30.6094H133.115C132.991 31.6987 132.424 32.8049 131.413 33.928C129.841 35.7136 127.64 36.6064 124.81 36.6064C122.474 36.6064 120.413 35.854 118.627 34.3491C116.842 32.8442 115.949 30.396 115.949 27.0044C115.949 23.8262 116.752 21.3892 118.358 19.6934C119.975 17.9976 122.07 17.1497 124.641 17.1497ZM134.715 21.2263V17.8066H137.276V12.6855H142.026V17.8066H145.008V21.2263H142.026V30.9294C142.026 31.6819 142.122 32.1536 142.312 32.3445C142.503 32.5242 143.087 32.614 144.064 32.614C144.21 32.614 144.362 32.614 144.519 32.614C144.688 32.6028 144.851 32.5916 145.008 32.5803V36.1685L142.734 36.2527C140.465 36.3313 138.915 35.9382 138.084 35.0735C137.545 34.5232 137.276 33.6753 137.276 32.5298V21.2263H134.715Z" fill="white"/>
<circle cx="167" cy="37" r="11" fill="#FF0000"/>
<path d="M165.333 33.5791V40.625H167.413C168.477 40.625 169.219 40.1001 169.639 39.0503C169.869 38.4741 169.983 37.7881 169.983 36.9922C169.983 35.8936 169.81 35.0513 169.463 34.4653C169.122 33.8745 168.438 33.5791 167.413 33.5791H165.333ZM167.793 31.7041C168.462 31.7139 169.019 31.792 169.463 31.9385C170.22 32.1875 170.833 32.644 171.302 33.3081C171.678 33.8452 171.934 34.4263 172.071 35.0513C172.208 35.6763 172.276 36.272 172.276 36.8384C172.276 38.2739 171.988 39.4897 171.412 40.4858C170.63 41.8286 169.424 42.5 167.793 42.5H163.143V31.7041H167.793Z" fill="white"/>
<circle cx="193" cy="37" r="11" fill="#82D24D"/>
<path d="M188.628 42.5V31.7041H190.862V35.8203H195.081V31.7041H197.322V42.5H195.081V37.6807H190.862V42.5H188.628Z" fill="white"/>
<circle cx="167" cy="11" r="11" fill="#0030FF"/>
<path d="M169.048 5.7041H172.293V16.5H170.191V9.19775C170.191 8.98779 170.193 8.69482 170.198 8.31885C170.203 7.93799 170.206 7.64502 170.206 7.43994L168.162 16.5H165.972L163.943 7.43994C163.943 7.64502 163.946 7.93799 163.951 8.31885C163.956 8.69482 163.958 8.98779 163.958 9.19775V16.5H161.856V5.7041H165.137L167.1 14.1929L169.048 5.7041Z" fill="white"/>
<circle cx="193" cy="11" r="11" fill="#FFD200"/>
<path d="M194.208 16.5H191.967V5.7041H194.208V16.5Z" fill="black"/>
</svg>
