<svg width="1536" height="88" viewBox="0 0 1536 88" fill="none" xmlns="http://www.w3.org/2000/svg">
<g clip-path="url(#clip0_71_32)">
<mask id="path-1-outside-1_71_32" maskUnits="userSpaceOnUse" x="-1.00977" y="-0.769531" width="1534" height="88" fill="black">
<rect fill="white" x="-1.00977" y="-0.769531" width="1534" height="88"/>
<path d="M25.7153 83.8701L1.99023 2.34507H23.7647L36.0652 55.7663H36.7419L50.7938 2.34507H68.5478L82.5997 55.8857H83.2764L95.6166 2.34507H117.351L93.6661 83.8701H74.6781L59.9892 34.4296H59.3523L44.6635 83.8701H25.7153ZM125.492 83.8701V2.34507H145.196V35.0665H177.321V2.34507H196.986V83.8701H177.321V51.1088H145.196V83.8701H125.492ZM226.98 83.8701H205.803L233.31 2.34507H259.542L287.049 83.8701H265.872L246.725 22.8856H246.088L226.98 83.8701ZM224.154 51.7855H268.419V66.753H224.154V51.7855ZM282.979 18.3475V2.34507H351.885V18.3475H327.165V83.8701H307.739V18.3475H282.979ZM385.592 83.8701V2.34507H405.296V35.0665H437.421V2.34507H457.085V83.8701H437.421V51.1088H405.296V83.8701H385.592ZM487.08 83.8701H465.903L493.409 2.34507H519.642L547.149 83.8701H525.972L506.824 22.8856H506.188L487.08 83.8701ZM484.254 51.7855H528.519V66.753H484.254V51.7855ZM563.49 2.34507L581.722 62.0558H582.398L600.63 2.34507H622.683L595.176 83.8701H568.943L541.437 2.34507H563.49ZM631.461 83.8701V2.34507H688.305V18.3475H651.165V35.0665H685.399V51.1088H651.165V67.8676H688.305V83.8701H631.461ZM744.274 83.8701L720.549 2.34507H742.323L754.624 55.7663H755.301L769.352 2.34507H787.107L801.158 55.8857H801.835L814.175 2.34507H835.91L812.225 83.8701H793.237L778.548 34.4296H777.911L763.222 83.8701H744.274ZM844.051 83.8701V2.34507H900.895V18.3475H863.755V35.0665H897.989V51.1088H863.755V67.8676H900.895V83.8701H844.051ZM937.319 83.8701V2.34507H970.996C977.099 2.34507 982.367 3.53928 986.799 5.92771C991.257 8.2896 994.694 11.5936 997.109 15.8397C999.524 20.0592 1000.73 24.9688 1000.73 30.5683C1000.73 36.1944 999.498 41.1172 997.029 45.3368C994.588 49.5298 991.098 52.7807 986.56 55.0895C982.022 57.3984 976.635 58.5528 970.398 58.5528H949.619V43.028H966.736C969.709 43.028 972.19 42.5105 974.18 41.4755C976.197 40.4405 977.723 38.9942 978.758 37.1365C979.793 35.2523 980.31 33.0629 980.31 30.5683C980.31 28.0472 979.793 25.8711 978.758 24.04C977.723 22.1823 976.197 20.7492 974.18 19.7408C972.163 18.7323 969.682 18.2281 966.736 18.2281H957.023V83.8701H937.319ZM1010.44 83.8701V2.34507H1030.15V67.8676H1064.06V83.8701H1010.44ZM1092.99 83.8701H1071.82L1099.32 2.34507H1125.56L1153.06 83.8701H1131.89L1112.74 22.8856H1112.1L1092.99 83.8701ZM1090.17 51.7855H1134.43V66.753H1090.17V51.7855ZM1231.22 2.34507V83.8701H1214.51L1182.06 36.8181H1181.55V83.8701H1161.84V2.34507H1178.8L1210.88 49.3175H1211.56V2.34507H1231.22ZM1313 2.34507V83.8701H1296.28L1263.84 36.8181H1263.32V83.8701H1243.61V2.34507H1260.57L1292.66 49.3175H1293.33V2.34507H1313ZM1325.39 83.8701V2.34507H1382.23V18.3475H1345.09V35.0665H1379.33V51.1088H1345.09V67.8676H1382.23V83.8701H1325.39ZM1424.71 83.8701H1394.57V2.34507H1424.67C1432.97 2.34507 1440.13 3.97716 1446.12 7.24135C1452.15 10.479 1456.79 15.1497 1460.06 21.2535C1463.32 27.3307 1464.95 34.6021 1464.95 43.0678C1464.95 51.56 1463.32 58.8579 1460.06 64.9617C1456.82 71.0655 1452.19 75.7494 1446.16 79.0136C1440.14 82.2513 1432.99 83.8701 1424.71 83.8701ZM1414.28 67.0715H1423.95C1428.52 67.0715 1432.38 66.3019 1435.54 64.7627C1438.72 63.1969 1441.12 60.6625 1442.74 57.1595C1444.39 53.6299 1445.21 48.9327 1445.21 43.0678C1445.21 37.2029 1444.39 32.5322 1442.74 29.0557C1441.09 25.5526 1438.67 23.0315 1435.46 21.4923C1432.27 19.9266 1428.34 19.1437 1423.67 19.1437H1414.28V67.0715ZM1491.78 58.911V57.2789C1491.78 52.7674 1492.15 49.1715 1492.9 46.4912C1493.67 43.8108 1494.78 41.6613 1496.24 40.0424C1497.7 38.3971 1499.48 36.8977 1501.58 35.5442C1503.25 34.4827 1504.73 33.4079 1506.03 32.3198C1507.36 31.2052 1508.41 30.011 1509.18 28.7372C1509.95 27.4634 1510.33 26.0171 1510.33 24.3982C1510.33 22.8325 1509.96 21.4525 1509.22 20.2583C1508.47 19.0641 1507.45 18.1485 1506.15 17.5116C1504.88 16.8481 1503.46 16.5164 1501.89 16.5164C1500.33 16.5164 1498.85 16.8747 1497.47 17.5912C1496.12 18.3077 1495.01 19.3295 1494.13 20.6564C1493.28 21.9567 1492.84 23.5357 1492.82 25.3934H1474.51C1474.59 19.8204 1475.87 15.2559 1478.37 11.6997C1480.89 8.14364 1484.22 5.51637 1488.36 3.81793C1492.5 2.09296 1497.06 1.23047 1502.05 1.23047C1507.52 1.23047 1512.38 2.07969 1516.62 3.77812C1520.89 5.47656 1524.25 7.98442 1526.69 11.3017C1529.13 14.6189 1530.36 18.6793 1530.36 23.4827C1530.36 26.6407 1529.82 29.4272 1528.76 31.8422C1527.7 34.2571 1526.22 36.3934 1524.3 38.2511C1522.42 40.0822 1520.2 41.7541 1517.66 43.2668C1515.67 44.4345 1514.01 45.6552 1512.68 46.9291C1511.38 48.2029 1510.4 49.6625 1509.74 51.3079C1509.07 52.9267 1508.74 54.917 1508.74 57.2789V58.911H1491.78ZM1500.58 85.0245C1497.71 85.0245 1495.26 84.0161 1493.22 81.9992C1491.2 79.9823 1490.2 77.5408 1490.23 74.6747C1490.2 71.8616 1491.2 69.4599 1493.22 67.4696C1495.26 65.4527 1497.71 64.4442 1500.58 64.4442C1503.31 64.4442 1505.71 65.4527 1507.78 67.4696C1509.85 69.4599 1510.9 71.8616 1510.93 74.6747C1510.9 76.5854 1510.4 78.3236 1509.42 79.8894C1508.46 81.4551 1507.2 82.7024 1505.64 83.6313C1504.1 84.5601 1502.41 85.0245 1500.58 85.0245Z"/>
</mask>
<path d="M25.7153 83.8701L1.99023 2.34507H23.7647L36.0652 55.7663H36.7419L50.7938 2.34507H68.5478L82.5997 55.8857H83.2764L95.6166 2.34507H117.351L93.6661 83.8701H74.6781L59.9892 34.4296H59.3523L44.6635 83.8701H25.7153ZM125.492 83.8701V2.34507H145.196V35.0665H177.321V2.34507H196.986V83.8701H177.321V51.1088H145.196V83.8701H125.492ZM226.98 83.8701H205.803L233.31 2.34507H259.542L287.049 83.8701H265.872L246.725 22.8856H246.088L226.98 83.8701ZM224.154 51.7855H268.419V66.753H224.154V51.7855ZM282.979 18.3475V2.34507H351.885V18.3475H327.165V83.8701H307.739V18.3475H282.979ZM385.592 83.8701V2.34507H405.296V35.0665H437.421V2.34507H457.085V83.8701H437.421V51.1088H405.296V83.8701H385.592ZM487.08 83.8701H465.903L493.409 2.34507H519.642L547.149 83.8701H525.972L506.824 22.8856H506.188L487.08 83.8701ZM484.254 51.7855H528.519V66.753H484.254V51.7855ZM563.49 2.34507L581.722 62.0558H582.398L600.63 2.34507H622.683L595.176 83.8701H568.943L541.437 2.34507H563.49ZM631.461 83.8701V2.34507H688.305V18.3475H651.165V35.0665H685.399V51.1088H651.165V67.8676H688.305V83.8701H631.461ZM744.274 83.8701L720.549 2.34507H742.323L754.624 55.7663H755.301L769.352 2.34507H787.107L801.158 55.8857H801.835L814.175 2.34507H835.91L812.225 83.8701H793.237L778.548 34.4296H777.911L763.222 83.8701H744.274ZM844.051 83.8701V2.34507H900.895V18.3475H863.755V35.0665H897.989V51.1088H863.755V67.8676H900.895V83.8701H844.051ZM937.319 83.8701V2.34507H970.996C977.099 2.34507 982.367 3.53928 986.799 5.92771C991.257 8.2896 994.694 11.5936 997.109 15.8397C999.524 20.0592 1000.73 24.9688 1000.73 30.5683C1000.73 36.1944 999.498 41.1172 997.029 45.3368C994.588 49.5298 991.098 52.7807 986.56 55.0895C982.022 57.3984 976.635 58.5528 970.398 58.5528H949.619V43.028H966.736C969.709 43.028 972.19 42.5105 974.18 41.4755C976.197 40.4405 977.723 38.9942 978.758 37.1365C979.793 35.2523 980.31 33.0629 980.31 30.5683C980.31 28.0472 979.793 25.8711 978.758 24.04C977.723 22.1823 976.197 20.7492 974.18 19.7408C972.163 18.7323 969.682 18.2281 966.736 18.2281H957.023V83.8701H937.319ZM1010.44 83.8701V2.34507H1030.15V67.8676H1064.06V83.8701H1010.44ZM1092.99 83.8701H1071.82L1099.32 2.34507H1125.56L1153.06 83.8701H1131.89L1112.74 22.8856H1112.1L1092.99 83.8701ZM1090.17 51.7855H1134.43V66.753H1090.17V51.7855ZM1231.22 2.34507V83.8701H1214.51L1182.06 36.8181H1181.55V83.8701H1161.84V2.34507H1178.8L1210.88 49.3175H1211.56V2.34507H1231.22ZM1313 2.34507V83.8701H1296.28L1263.84 36.8181H1263.32V83.8701H1243.61V2.34507H1260.57L1292.66 49.3175H1293.33V2.34507H1313ZM1325.39 83.8701V2.34507H1382.23V18.3475H1345.09V35.0665H1379.33V51.1088H1345.09V67.8676H1382.23V83.8701H1325.39ZM1424.71 83.8701H1394.57V2.34507H1424.67C1432.97 2.34507 1440.13 3.97716 1446.12 7.24135C1452.15 10.479 1456.79 15.1497 1460.06 21.2535C1463.32 27.3307 1464.95 34.6021 1464.95 43.0678C1464.95 51.56 1463.32 58.8579 1460.06 64.9617C1456.82 71.0655 1452.19 75.7494 1446.16 79.0136C1440.14 82.2513 1432.99 83.8701 1424.71 83.8701ZM1414.28 67.0715H1423.95C1428.52 67.0715 1432.38 66.3019 1435.54 64.7627C1438.72 63.1969 1441.12 60.6625 1442.74 57.1595C1444.39 53.6299 1445.21 48.9327 1445.21 43.0678C1445.21 37.2029 1444.39 32.5322 1442.74 29.0557C1441.09 25.5526 1438.67 23.0315 1435.46 21.4923C1432.27 19.9266 1428.34 19.1437 1423.67 19.1437H1414.28V67.0715ZM1491.78 58.911V57.2789C1491.78 52.7674 1492.15 49.1715 1492.9 46.4912C1493.67 43.8108 1494.78 41.6613 1496.24 40.0424C1497.7 38.3971 1499.48 36.8977 1501.58 35.5442C1503.25 34.4827 1504.73 33.4079 1506.03 32.3198C1507.36 31.2052 1508.41 30.011 1509.18 28.7372C1509.95 27.4634 1510.33 26.0171 1510.33 24.3982C1510.33 22.8325 1509.96 21.4525 1509.22 20.2583C1508.47 19.0641 1507.45 18.1485 1506.15 17.5116C1504.88 16.8481 1503.46 16.5164 1501.89 16.5164C1500.33 16.5164 1498.85 16.8747 1497.47 17.5912C1496.12 18.3077 1495.01 19.3295 1494.13 20.6564C1493.28 21.9567 1492.84 23.5357 1492.82 25.3934H1474.51C1474.59 19.8204 1475.87 15.2559 1478.37 11.6997C1480.89 8.14364 1484.22 5.51637 1488.36 3.81793C1492.5 2.09296 1497.06 1.23047 1502.05 1.23047C1507.52 1.23047 1512.38 2.07969 1516.62 3.77812C1520.89 5.47656 1524.25 7.98442 1526.69 11.3017C1529.13 14.6189 1530.36 18.6793 1530.36 23.4827C1530.36 26.6407 1529.82 29.4272 1528.76 31.8422C1527.7 34.2571 1526.22 36.3934 1524.3 38.2511C1522.42 40.0822 1520.2 41.7541 1517.66 43.2668C1515.67 44.4345 1514.01 45.6552 1512.68 46.9291C1511.38 48.2029 1510.4 49.6625 1509.74 51.3079C1509.07 52.9267 1508.74 54.917 1508.74 57.2789V58.911H1491.78ZM1500.58 85.0245C1497.71 85.0245 1495.26 84.0161 1493.22 81.9992C1491.2 79.9823 1490.2 77.5408 1490.23 74.6747C1490.2 71.8616 1491.2 69.4599 1493.22 67.4696C1495.26 65.4527 1497.71 64.4442 1500.58 64.4442C1503.31 64.4442 1505.71 65.4527 1507.78 67.4696C1509.85 69.4599 1510.9 71.8616 1510.93 74.6747C1510.9 76.5854 1510.4 78.3236 1509.42 79.8894C1508.46 81.4551 1507.2 82.7024 1505.64 83.6313C1504.1 84.5601 1502.41 85.0245 1500.58 85.0245Z" stroke="white" stroke-width="4" mask="url(#path-1-outside-1_71_32)"/>
</g>
<defs>
<clipPath id="clip0_71_32">
<rect width="1536" height="88" fill="white"/>
</clipPath>
</defs>
</svg>
