<svg width="1536" height="96" viewBox="0 0 1536 96" fill="none" xmlns="http://www.w3.org/2000/svg">
<g clip-path="url(#clip0_71_32)">
<mask id="path-1-outside-1_71_32" maskUnits="userSpaceOnUse" x="1.95215" y="0.192871" width="1529" height="96" fill="black">
<rect fill="white" x="1.95215" y="0.192871" width="1529" height="96"/>
<path d="M3.95215 20.2477V2.19287H81.6959V20.2477H53.8052V94.1739H31.8878V20.2477H3.95215ZM92.5535 94.1739V2.19287H114.785V39.111H151.03V2.19287H173.217V94.1739H151.03V57.2108H114.785V94.1739H92.5535ZM187.162 94.1739V2.19287H251.297V20.2477H209.394V39.111H248.019V57.2108H209.394V76.119H251.297V94.1739H187.162ZM289.383 20.2477V2.19287H367.127V20.2477H339.236V94.1739H317.319V20.2477H289.383ZM377.984 94.1739V2.19287H442.12V20.2477H400.216V39.111H438.841V57.2108H400.216V76.119H442.12V94.1739H377.984ZM475.939 94.1739H452.045L483.08 2.19287H512.677L543.712 94.1739H519.818L498.216 25.3678H497.497L475.939 94.1739ZM472.75 57.9743H522.693V74.8615H472.75V57.9743ZM553.615 2.19287H581.147L604.501 59.1421H605.579L628.934 2.19287H656.465V94.1739H634.817V37.6738H634.054L611.957 93.59H598.124L576.027 37.3595H575.263V94.1739H553.615V2.19287ZM697.504 94.1739V2.19287H735.859C742.746 2.19287 748.51 3.16598 753.151 5.11219C757.822 7.0584 761.325 9.7831 763.66 13.2863C766.026 16.7895 767.208 20.8466 767.208 25.4576C767.208 28.9608 766.475 32.0897 765.008 34.8443C763.541 37.569 761.519 39.8296 758.944 41.6261C756.369 43.4227 753.39 44.6802 750.007 45.3988V46.2971C753.72 46.4767 757.148 47.4798 760.292 49.3062C763.466 51.1327 766.011 53.6777 767.927 56.9414C769.843 60.1751 770.801 64.0076 770.801 68.439C770.801 73.3794 769.544 77.7958 767.029 81.6882C764.514 85.5507 760.876 88.6047 756.115 90.8504C751.354 93.0661 745.575 94.1739 738.779 94.1739H697.504ZM719.736 76.2538H733.479C738.3 76.2538 741.848 75.3406 744.123 73.5141C746.429 71.6877 747.582 69.1426 747.582 65.879C747.582 63.5136 747.028 61.4775 745.92 59.7708C744.812 58.0342 743.24 56.7018 741.204 55.7736C739.168 54.8155 736.728 54.3364 733.883 54.3364H719.736V76.2538ZM719.736 40.0093H732.042C734.467 40.0093 736.623 39.6051 738.509 38.7967C740.396 37.9882 741.863 36.8205 742.911 35.2935C743.989 33.7664 744.528 31.925 744.528 29.7692C744.528 26.6852 743.435 24.2599 741.249 22.4934C739.063 20.7268 736.114 19.8435 732.401 19.8435H719.736V40.0093ZM781.491 94.1739V2.19287H845.626V20.2477H803.722V39.111H842.347V57.2108H803.722V76.119H845.626V94.1739H781.491ZM859.549 94.1739V2.19287H881.781V39.111H918.025V2.19287H940.212V94.1739H918.025V57.2108H881.781V94.1739H859.549ZM976.389 2.19287V94.1739H954.157V2.19287H976.389ZM1068.63 2.19287V94.1739H1049.76L1013.16 41.0872H1012.58V94.1739H990.346V2.19287H1009.48L1045.68 55.1898H1046.44V2.19287H1068.63ZM1116.61 94.1739H1082.61V2.19287H1116.56C1125.93 2.19287 1134 4.03429 1140.77 7.71713C1147.57 11.37 1152.81 16.6398 1156.49 23.5264C1160.17 30.383 1162.01 38.5871 1162.01 48.1385C1162.01 57.7198 1160.17 65.9538 1156.49 72.8404C1152.84 79.727 1147.61 85.0117 1140.81 88.6946C1134.02 92.3475 1125.95 94.1739 1116.61 94.1739ZM1104.84 75.2208H1115.75C1120.9 75.2208 1125.26 74.3525 1128.82 72.6159C1132.42 70.8493 1135.13 67.9899 1136.95 64.0375C1138.81 60.0553 1139.74 54.7556 1139.74 48.1385C1139.74 41.5214 1138.81 36.2516 1136.95 32.3292C1135.1 28.3769 1132.36 25.5325 1128.73 23.7958C1125.14 22.0293 1120.71 21.146 1115.44 21.146H1104.84V75.2208ZM1202.16 2.19287H1229.7L1253.05 59.1421H1254.13L1277.48 2.19287H1305.01V94.1739H1283.37V37.6738H1282.6L1260.51 93.59H1246.67L1224.58 37.3595H1223.81V94.1739H1202.16V2.19287ZM1341.11 2.19287V94.1739H1318.88V2.19287H1341.11ZM1389.07 94.1739H1355.07V2.19287H1389.02C1398.4 2.19287 1406.46 4.03429 1413.23 7.71713C1420.03 11.37 1425.27 16.6398 1428.95 23.5264C1432.63 30.383 1434.48 38.5871 1434.48 48.1385C1434.48 57.7198 1432.63 65.9538 1428.95 72.8404C1425.3 79.727 1420.07 85.0117 1413.28 88.6946C1406.48 92.3475 1398.41 94.1739 1389.07 94.1739ZM1377.3 75.2208H1388.22C1393.37 75.2208 1397.72 74.3525 1401.28 72.6159C1404.88 70.8493 1407.59 67.9899 1409.41 64.0375C1411.27 60.0553 1412.2 54.7556 1412.2 48.1385C1412.2 41.5214 1411.27 36.2516 1409.41 32.3292C1407.56 28.3769 1404.82 25.5325 1401.19 23.7958C1397.6 22.0293 1393.17 21.146 1387.9 21.146H1377.3V75.2208ZM1447.45 94.1739V2.19287H1469.69V39.111H1505.93V2.19287H1528.12V94.1739H1505.93V57.2108H1469.69V94.1739H1447.45Z"/>
</mask>
<path d="M3.95215 20.2477V2.19287H81.6959V20.2477H53.8052V94.1739H31.8878V20.2477H3.95215ZM92.5535 94.1739V2.19287H114.785V39.111H151.03V2.19287H173.217V94.1739H151.03V57.2108H114.785V94.1739H92.5535ZM187.162 94.1739V2.19287H251.297V20.2477H209.394V39.111H248.019V57.2108H209.394V76.119H251.297V94.1739H187.162ZM289.383 20.2477V2.19287H367.127V20.2477H339.236V94.1739H317.319V20.2477H289.383ZM377.984 94.1739V2.19287H442.12V20.2477H400.216V39.111H438.841V57.2108H400.216V76.119H442.12V94.1739H377.984ZM475.939 94.1739H452.045L483.08 2.19287H512.677L543.712 94.1739H519.818L498.216 25.3678H497.497L475.939 94.1739ZM472.75 57.9743H522.693V74.8615H472.75V57.9743ZM553.615 2.19287H581.147L604.501 59.1421H605.579L628.934 2.19287H656.465V94.1739H634.817V37.6738H634.054L611.957 93.59H598.124L576.027 37.3595H575.263V94.1739H553.615V2.19287ZM697.504 94.1739V2.19287H735.859C742.746 2.19287 748.51 3.16598 753.151 5.11219C757.822 7.0584 761.325 9.7831 763.66 13.2863C766.026 16.7895 767.208 20.8466 767.208 25.4576C767.208 28.9608 766.475 32.0897 765.008 34.8443C763.541 37.569 761.519 39.8296 758.944 41.6261C756.369 43.4227 753.39 44.6802 750.007 45.3988V46.2971C753.72 46.4767 757.148 47.4798 760.292 49.3062C763.466 51.1327 766.011 53.6777 767.927 56.9414C769.843 60.1751 770.801 64.0076 770.801 68.439C770.801 73.3794 769.544 77.7958 767.029 81.6882C764.514 85.5507 760.876 88.6047 756.115 90.8504C751.354 93.0661 745.575 94.1739 738.779 94.1739H697.504ZM719.736 76.2538H733.479C738.3 76.2538 741.848 75.3406 744.123 73.5141C746.429 71.6877 747.582 69.1426 747.582 65.879C747.582 63.5136 747.028 61.4775 745.92 59.7708C744.812 58.0342 743.24 56.7018 741.204 55.7736C739.168 54.8155 736.728 54.3364 733.883 54.3364H719.736V76.2538ZM719.736 40.0093H732.042C734.467 40.0093 736.623 39.6051 738.509 38.7967C740.396 37.9882 741.863 36.8205 742.911 35.2935C743.989 33.7664 744.528 31.925 744.528 29.7692C744.528 26.6852 743.435 24.2599 741.249 22.4934C739.063 20.7268 736.114 19.8435 732.401 19.8435H719.736V40.0093ZM781.491 94.1739V2.19287H845.626V20.2477H803.722V39.111H842.347V57.2108H803.722V76.119H845.626V94.1739H781.491ZM859.549 94.1739V2.19287H881.781V39.111H918.025V2.19287H940.212V94.1739H918.025V57.2108H881.781V94.1739H859.549ZM976.389 2.19287V94.1739H954.157V2.19287H976.389ZM1068.63 2.19287V94.1739H1049.76L1013.16 41.0872H1012.58V94.1739H990.346V2.19287H1009.48L1045.68 55.1898H1046.44V2.19287H1068.63ZM1116.61 94.1739H1082.61V2.19287H1116.56C1125.93 2.19287 1134 4.03429 1140.77 7.71713C1147.57 11.37 1152.81 16.6398 1156.49 23.5264C1160.17 30.383 1162.01 38.5871 1162.01 48.1385C1162.01 57.7198 1160.17 65.9538 1156.49 72.8404C1152.84 79.727 1147.61 85.0117 1140.81 88.6946C1134.02 92.3475 1125.95 94.1739 1116.61 94.1739ZM1104.84 75.2208H1115.75C1120.9 75.2208 1125.26 74.3525 1128.82 72.6159C1132.42 70.8493 1135.13 67.9899 1136.95 64.0375C1138.81 60.0553 1139.74 54.7556 1139.74 48.1385C1139.74 41.5214 1138.81 36.2516 1136.95 32.3292C1135.1 28.3769 1132.36 25.5325 1128.73 23.7958C1125.14 22.0293 1120.71 21.146 1115.44 21.146H1104.84V75.2208ZM1202.16 2.19287H1229.7L1253.05 59.1421H1254.13L1277.48 2.19287H1305.01V94.1739H1283.37V37.6738H1282.6L1260.51 93.59H1246.67L1224.58 37.3595H1223.81V94.1739H1202.16V2.19287ZM1341.11 2.19287V94.1739H1318.88V2.19287H1341.11ZM1389.07 94.1739H1355.07V2.19287H1389.02C1398.4 2.19287 1406.46 4.03429 1413.23 7.71713C1420.03 11.37 1425.27 16.6398 1428.95 23.5264C1432.63 30.383 1434.48 38.5871 1434.48 48.1385C1434.48 57.7198 1432.63 65.9538 1428.95 72.8404C1425.3 79.727 1420.07 85.0117 1413.28 88.6946C1406.48 92.3475 1398.41 94.1739 1389.07 94.1739ZM1377.3 75.2208H1388.22C1393.37 75.2208 1397.72 74.3525 1401.28 72.6159C1404.88 70.8493 1407.59 67.9899 1409.41 64.0375C1411.27 60.0553 1412.2 54.7556 1412.2 48.1385C1412.2 41.5214 1411.27 36.2516 1409.41 32.3292C1407.56 28.3769 1404.82 25.5325 1401.19 23.7958C1397.6 22.0293 1393.17 21.146 1387.9 21.146H1377.3V75.2208ZM1447.45 94.1739V2.19287H1469.69V39.111H1505.93V2.19287H1528.12V94.1739H1505.93V57.2108H1469.69V94.1739H1447.45Z" stroke="white" stroke-width="4" mask="url(#path-1-outside-1_71_32)"/>
</g>
<defs>
<clipPath id="clip0_71_32">
<rect width="1536" height="96" fill="white"/>
</clipPath>
</defs>
</svg>
