<svg width="32" height="32" viewBox="0 0 32 32" fill="currentColor" xmlns="http://www.w3.org/2000/svg">
<path d="M10.052 30C22.128 30 28.734 19.994 28.734 11.332C28.734 11.052 28.734 10.768 28.722 10.488C30.0081 9.55695 31.1181 8.40429 32 7.08398C30.7986 7.61368 29.5255 7.96279 28.222 8.11998C29.5951 7.29926 30.6234 6.00792 31.116 4.48598C29.826 5.25023 28.414 5.78673 26.942 6.07198C25.9524 5.01803 24.6428 4.31982 23.2162 4.0855C21.7895 3.85118 20.3254 4.09383 19.0507 4.77586C17.7759 5.45789 16.7616 6.54124 16.1649 7.8581C15.5682 9.17497 15.4224 10.6518 15.75 12.06C13.1395 11.9291 10.5856 11.2509 8.25409 10.0695C5.92254 8.88802 3.86537 7.22967 2.216 5.20198C1.37868 6.64815 1.12315 8.35878 1.50129 9.98651C1.87944 11.6142 2.86291 13.037 4.252 13.966C3.21108 13.9306 2.19304 13.6511 1.28 13.15V13.24C1.28179 14.7549 1.80661 16.2228 2.76575 17.3955C3.72488 18.5682 5.0595 19.3737 6.544 19.676C5.98053 19.8312 5.39846 19.9086 4.814 19.906C4.40197 19.9072 3.99076 19.8691 3.586 19.792C4.00557 21.0961 4.82255 22.2363 5.92249 23.0529C7.02244 23.8696 8.35027 24.3217 9.72 24.346C7.39311 26.1736 4.5188 27.1648 1.56 27.16C1.03864 27.1622 0.517646 27.1321 0 27.07C3.00303 28.9845 6.4906 30.0011 10.052 30V30Z"/>
</svg>
